<svg width="655" height="623" viewBox="0 0 655 623" fill="none" xmlns="http://www.w3.org/2000/svg">
<path fill-rule="evenodd" clip-rule="evenodd" d="M345.65 11.2184C402.832 6.3698 461.49 -10.827 514.875 10.2284C570.911 32.3296 623.412 74.042 646.255 129.78C668.621 184.352 637.145 244.396 635 303.334C632.947 359.73 663.106 421.468 633.883 469.745C604.643 518.05 536.783 521.528 486.903 547.991C439.04 573.384 399.71 619.031 345.65 622.662C290.759 626.35 242.321 592.106 192.998 567.736C140.638 541.865 82.0362 522.587 47.6167 475.404C11.9416 426.501 -1.41563 363.848 0.117377 303.334C1.6312 243.578 21.1901 184.669 56.2091 136.225C89.5877 90.0511 139.916 60.1776 192.221 37.5873C240.687 16.6555 293.047 15.6789 345.65 11.2184Z" fill="#D3D3D3"/>
</svg>
